<mxfile host="app.diagrams.net" agent="Mozilla/5.0 (Windows NT 10.0; Win64; x64) AppleWebKit/537.36 (KHTML, like Gecko) Chrome/131.0.0.0 Safari/537.36" version="26.0.4">
  <diagram name="Página-1" id="nXk2macpbTQvZ-2EbTRM">
    <mxGraphModel dx="1050" dy="557" grid="1" gridSize="10" guides="1" tooltips="1" connect="1" arrows="1" fold="1" page="1" pageScale="1" pageWidth="827" pageHeight="1169" math="0" shadow="0">
      <root>
        <mxCell id="0" />
        <mxCell id="1" parent="0" />
        <mxCell id="EC1Esrk0Wo241ftcUjle-1" value="Pagina Base" style="rounded=0;whiteSpace=wrap;html=1;" vertex="1" parent="1">
          <mxGeometry x="180" y="90" width="120" height="60" as="geometry" />
        </mxCell>
        <mxCell id="EC1Esrk0Wo241ftcUjle-3" value="Login" style="rounded=0;whiteSpace=wrap;html=1;" vertex="1" parent="1">
          <mxGeometry x="380" y="230" width="120" height="60" as="geometry" />
        </mxCell>
        <mxCell id="EC1Esrk0Wo241ftcUjle-4" value="" style="endArrow=classic;html=1;rounded=0;" edge="1" parent="1" source="EC1Esrk0Wo241ftcUjle-1" target="EC1Esrk0Wo241ftcUjle-3">
          <mxGeometry width="50" height="50" relative="1" as="geometry">
            <mxPoint x="390" y="320" as="sourcePoint" />
            <mxPoint x="440" y="270" as="targetPoint" />
          </mxGeometry>
        </mxCell>
        <mxCell id="EC1Esrk0Wo241ftcUjle-5" value="" style="endArrow=classic;html=1;rounded=0;" edge="1" parent="1" source="EC1Esrk0Wo241ftcUjle-1" target="EC1Esrk0Wo241ftcUjle-6">
          <mxGeometry width="50" height="50" relative="1" as="geometry">
            <mxPoint x="390" y="320" as="sourcePoint" />
            <mxPoint x="440" y="270" as="targetPoint" />
          </mxGeometry>
        </mxCell>
        <mxCell id="EC1Esrk0Wo241ftcUjle-6" value="Disciplinas" style="rounded=0;whiteSpace=wrap;html=1;" vertex="1" parent="1">
          <mxGeometry x="180" y="240" width="120" height="60" as="geometry" />
        </mxCell>
        <mxCell id="EC1Esrk0Wo241ftcUjle-7" value="Programação" style="rounded=0;whiteSpace=wrap;html=1;" vertex="1" parent="1">
          <mxGeometry x="110" y="410" width="120" height="60" as="geometry" />
        </mxCell>
        <mxCell id="EC1Esrk0Wo241ftcUjle-8" value="" style="endArrow=classic;html=1;rounded=0;" edge="1" parent="1" source="EC1Esrk0Wo241ftcUjle-6" target="EC1Esrk0Wo241ftcUjle-7">
          <mxGeometry width="50" height="50" relative="1" as="geometry">
            <mxPoint x="370" y="300" as="sourcePoint" />
            <mxPoint x="370" y="390" as="targetPoint" />
          </mxGeometry>
        </mxCell>
        <mxCell id="EC1Esrk0Wo241ftcUjle-12" value="GPSI" style="rounded=0;whiteSpace=wrap;html=1;" vertex="1" parent="1">
          <mxGeometry x="280" y="410" width="120" height="60" as="geometry" />
        </mxCell>
        <mxCell id="EC1Esrk0Wo241ftcUjle-13" value="" style="endArrow=classic;html=1;rounded=0;" edge="1" parent="1" source="EC1Esrk0Wo241ftcUjle-6" target="EC1Esrk0Wo241ftcUjle-12">
          <mxGeometry width="50" height="50" relative="1" as="geometry">
            <mxPoint x="-10" y="320" as="sourcePoint" />
            <mxPoint x="40" y="270" as="targetPoint" />
          </mxGeometry>
        </mxCell>
      </root>
    </mxGraphModel>
  </diagram>
</mxfile>
